<?xml version="1.0" standalone="no"?>
<!DOCTYPE svg PUBLIC "-//W3C//DTD SVG 20010904//EN"
 "http://www.w3.org/TR/2001/REC-SVG-20010904/DTD/svg10.dtd">
<svg version="1.0" xmlns="http://www.w3.org/2000/svg"
 width="177.000000pt" height="29.000000pt" viewBox="0 0 177.000000 29.000000"
 preserveAspectRatio="xMidYMid meet">

<g transform="translate(0.000000,29.000000) scale(0.100000,-0.100000)"
fill="#000000" stroke="none">
<path d="M200 234 c0 -8 5 -12 10 -9 6 4 8 11 5 16 -9 14 -15 11 -15 -7z"/>
<path d="M400 208 c0 -12 5 -50 11 -85 10 -57 14 -64 33 -61 17 2 22 12 28 53
4 28 10 65 13 83 4 24 2 32 -9 32 -10 0 -16 -18 -22 -62 l-7 -63 -9 40 c-5 22
-11 50 -14 63 -6 28 -24 29 -24 0z"/>
<path d="M500 145 l0 -85 33 0 c47 0 57 15 57 85 0 70 -10 85 -57 85 l-33 0 0
-85z m55 0 c0 -38 -4 -60 -12 -63 -10 -3 -13 14 -13 63 0 49 3 66 13 63 8 -3
12 -25 12 -63z"/>
<path d="M610 145 c0 -50 4 -85 10 -85 6 0 10 16 10 36 0 45 24 42 28 -4 2
-20 9 -32 18 -32 16 0 19 42 4 70 -7 13 -7 21 0 25 14 9 13 48 -2 63 -7 7 -25
12 -40 12 l-28 0 0 -85z m45 37 c0 -31 -19 -28 -23 4 -3 18 0 25 10 22 7 -3
13 -14 13 -26z"/>
<path d="M750 145 c0 -50 4 -85 10 -85 6 0 10 13 10 29 0 22 6 30 25 35 30 8
42 47 26 82 -8 18 -19 24 -41 24 l-30 0 0 -85z m50 29 c0 -15 -6 -24 -15 -24
-15 0 -21 40 -9 53 12 11 24 -3 24 -29z"/>
<path d="M840 146 c0 -70 3 -86 15 -86 11 0 15 11 15 36 0 45 24 42 28 -4 2
-18 7 -32 13 -32 5 0 8 36 6 83 l-2 82 -37 3 -38 3 0 -85z m55 34 c0 -13 -6
-25 -12 -27 -9 -3 -13 6 -13 27 0 21 4 30 13 28 6 -3 12 -15 12 -28z"/>
<path d="M946 215 c-9 -24 -7 -128 3 -143 5 -8 21 -12 37 -10 l29 3 0 80 0 80
-31 3 c-22 2 -33 -2 -38 -13z m49 -70 c0 -38 -4 -60 -12 -63 -10 -3 -13 14
-13 63 0 49 3 66 13 63 8 -3 12 -25 12 -63z"/>
<path d="M1060 160 c0 -54 -4 -72 -15 -76 -21 -8 -19 -24 3 -24 33 0 42 22 42
97 0 58 -3 73 -15 73 -12 0 -15 -14 -15 -70z"/>
<path d="M1110 145 l0 -85 35 0 c39 0 48 17 13 22 -31 4 -39 48 -9 48 12 0 21
6 21 15 0 9 -9 15 -21 15 -30 0 -22 44 9 48 35 5 26 22 -13 22 l-35 0 0 -85z"/>
<path d="M1204 217 c-3 -8 -4 -45 -2 -83 3 -63 5 -69 26 -72 13 -2 30 2 38 8
19 16 18 50 -1 50 -9 0 -15 -9 -15 -21 0 -12 -5 -19 -12 -16 -17 5 -18 119 -2
124 6 2 14 -6 17 -19 5 -18 9 -20 19 -10 9 9 10 17 2 30 -14 22 -62 28 -70 9z"/>
<path d="M1290 221 c0 -5 7 -11 15 -15 11 -4 15 -22 15 -76 0 -40 4 -70 10
-70 6 0 10 30 10 70 0 54 4 72 15 76 28 11 15 24 -25 24 -22 0 -40 -4 -40 -9z"/>
<path d="M132 211 c4 -13 18 -16 19 -4 0 4 -5 9 -11 12 -7 2 -11 -2 -8 -8z"/>
<path d="M260 204 c0 -8 5 -12 10 -9 6 3 10 10 10 16 0 5 -4 9 -10 9 -5 0 -10
-7 -10 -16z"/>
<path d="M176 187 c-36 -27 -14 -97 31 -97 18 0 53 37 53 55 0 18 -35 55 -53
55 -7 0 -21 -6 -31 -13z m64 -42 c0 -17 -30 -34 -47 -28 -7 3 -13 15 -13 28 0
13 6 25 13 28 17 6 47 -11 47 -28z"/>
<path d="M106 151 c-4 -5 -2 -12 3 -15 5 -4 12 -2 15 3 4 5 2 12 -3 15 -5 4
-12 2 -15 -3z"/>
<path d="M286 151 c-4 -5 -2 -12 3 -15 5 -4 12 -2 15 3 4 5 2 12 -3 15 -5 4
-12 2 -15 -3z"/>
<path d="M135 89 c-10 -15 3 -25 16 -12 7 7 7 13 1 17 -6 3 -14 1 -17 -5z"/>
<path d="M260 86 c0 -9 5 -16 10 -16 6 0 10 4 10 9 0 6 -4 13 -10 16 -5 3 -10
-1 -10 -9z"/>
<path d="M200 54 c0 -8 5 -12 10 -9 6 4 8 11 5 16 -9 14 -15 11 -15 -7z"/>
</g>
</svg>
